<svg width="512" height="512" viewBox="0 0 512 512" fill="none" xmlns="http://www.w3.org/2000/svg" role="img" aria-label="CashFlowHubs icon">
  <defs>
    <linearGradient id="bgGrad" x1="0" y1="0" x2="512" y2="512" gradientUnits="userSpaceOnUse">
      <stop offset="0" stop-color="#020617"/>
      <stop offset="1" stop-color="#071426"/>
    </linearGradient>
    <linearGradient id="markGrad" x1="130" y1="110" x2="390" y2="390" gradientUnits="userSpaceOnUse">
      <stop offset="0" stop-color="#a3ff3b"/>
      <stop offset="0.48" stop-color="#30f4a1"/>
      <stop offset="1" stop-color="#0bb7ff"/>
    </linearGradient>
    <linearGradient id="ringGrad" x1="120" y1="90" x2="400" y2="410" gradientUnits="userSpaceOnUse">
      <stop offset="0" stop-color="#13d6ff"/>
      <stop offset="0.55" stop-color="#1ef0a2"/>
      <stop offset="1" stop-color="#67ff3c"/>
    </linearGradient>
    <filter id="glow" x="-70%" y="-70%" width="240%" height="240%">
      <feGaussianBlur stdDeviation="8" result="blur"/>
      <feMerge>
        <feMergeNode in="blur"/>
        <feMergeNode in="SourceGraphic"/>
      </feMerge>
    </filter>
  </defs>

  <rect width="512" height="512" rx="96" fill="url(#bgGrad)"/>
  <circle cx="256" cy="256" r="178" fill="#071427" stroke="url(#ringGrad)" stroke-width="3.5" filter="url(#glow)"/>
  <circle cx="256" cy="256" r="148" fill="#04101e" stroke="#123d55" stroke-width="2"/>

  <g opacity="0.26" stroke="#71f7ff" stroke-width="1.1">
    <ellipse cx="256" cy="256" rx="124" ry="146"/>
    <ellipse cx="256" cy="256" rx="82" ry="146"/>
    <path d="M108 256H404"/>
    <path d="M118 204H394"/>
    <path d="M118 308H394"/>
    <path d="M256 110V402"/>
  </g>

  <text x="256" y="298" text-anchor="middle" font-family="Arial, Helvetica, sans-serif" font-size="240" font-weight="900" fill="url(#markGrad)" filter="url(#glow)">C</text>
  <path d="M206 292L252 274L286 236L320 255L330 223" stroke="#67ff3c" stroke-width="12" stroke-linecap="round" stroke-linejoin="round" filter="url(#glow)"/>
  <rect x="214" y="292" width="24" height="56" rx="5" fill="#14d1ff" filter="url(#glow)"/>
  <rect x="248" y="270" width="24" height="78" rx="5" fill="#1ef0a2" filter="url(#glow)"/>
  <rect x="282" y="248" width="24" height="100" rx="5" fill="#67ff3c" filter="url(#glow)"/>

  <path d="M136 178C188 140 224 126 256 126C288 126 324 140 376 178" stroke="url(#ringGrad)" stroke-width="4" opacity="0.85" filter="url(#glow)"/>
  <path d="M136 334C188 372 224 386 256 386C288 386 324 372 376 334" stroke="url(#ringGrad)" stroke-width="4" opacity="0.8" filter="url(#glow)"/>
</svg>
