<svg width="1200" height="630" viewBox="0 0 1200 630" fill="none" xmlns="http://www.w3.org/2000/svg">
  <defs>
    <linearGradient id="bg" x1="0" y1="0" x2="1200" y2="630" gradientUnits="userSpaceOnUse">
      <stop stop-color="#020617"/>
      <stop offset="0.5" stop-color="#052E16"/>
      <stop offset="1" stop-color="#0F172A"/>
    </linearGradient>
    <linearGradient id="accent" x1="110" y1="80" x2="1080" y2="570" gradientUnits="userSpaceOnUse">
      <stop stop-color="#22C55E"/>
      <stop offset="1" stop-color="#14B8A6"/>
    </linearGradient>
  </defs>
  <rect width="1200" height="630" rx="48" fill="url(#bg)"/>
  <circle cx="1020" cy="110" r="120" fill="#22C55E" fill-opacity="0.12"/>
  <circle cx="160" cy="520" r="170" fill="#14B8A6" fill-opacity="0.10"/>
  <rect x="76" y="76" width="1048" height="478" rx="36" stroke="url(#accent)" stroke-opacity="0.35" stroke-width="2"/>
  <rect x="120" y="126" width="78" height="78" rx="20" fill="url(#accent)"/>
  <path d="M151 151H175C188 151 198 159 198 172C198 181 192 188 182 192L203 218H180L162 193H158V218H151V151ZM158 161V186H174C183 186 188 180 188 173C188 166 183 161 174 161H158Z" fill="white"/>
  <text x="120" y="290" fill="white" font-family="Arial, Helvetica, sans-serif" font-size="72" font-weight="800">Earn Money Online in Africa</text>
  <text x="120" y="350" fill="#C7D2FE" font-family="Arial, Helvetica, sans-serif" font-size="34" font-weight="500">Surveys, microtasks, remote jobs, and instant mobile-money payouts</text>
  <text x="120" y="420" fill="#86EFAC" font-family="Arial, Helvetica, sans-serif" font-size="30" font-weight="700">CashFlowHubs</text>
  <rect x="820" y="160" width="248" height="300" rx="32" fill="#0F172A" fill-opacity="0.72" stroke="#22C55E" stroke-opacity="0.45"/>
  <text x="860" y="225" fill="white" font-family="Arial, Helvetica, sans-serif" font-size="30" font-weight="700">Get paid via</text>
  <text x="860" y="280" fill="#86EFAC" font-family="Arial, Helvetica, sans-serif" font-size="28" font-weight="700">M-Pesa</text>
  <text x="860" y="325" fill="#86EFAC" font-family="Arial, Helvetica, sans-serif" font-size="28" font-weight="700">MTN MoMo</text>
  <text x="860" y="370" fill="#86EFAC" font-family="Arial, Helvetica, sans-serif" font-size="28" font-weight="700">Flutterwave</text>
  <text x="860" y="415" fill="#86EFAC" font-family="Arial, Helvetica, sans-serif" font-size="28" font-weight="700">Telebirr</text>
</svg>
